<svg aria-hidden="true" style="position: absolute; width: 0; height: 0; overflow: hidden;" version="1.1" xmlns="http://www.w3.org/2000/svg" xmlns:xlink="http://www.w3.org/1999/xlink">
<defs>
<symbol id="icon-desktop" viewBox="0 0 39 32">
<path d="M1.5 25h17.5v1.5c0 0.276 0.224 0.5 0.5 0.5s0.5-0.224 0.5-0.5v-1.5h17.5c0.827 0 1.5-0.673 1.5-1.5v-22c0-0.827-0.673-1.5-1.5-1.5h-36c-0.827 0-1.5 0.673-1.5 1.5v22c0 0.827 0.673 1.5 1.5 1.5zM1 1.5c0-0.276 0.224-0.5 0.5-0.5h36c0.276 0 0.5 0.224 0.5 0.5v22c0 0.276-0.224 0.5-0.5 0.5h-36c-0.276 0-0.5-0.224-0.5-0.5v-22zM3.5 22h32c0.276 0 0.5-0.224 0.5-0.5v-18c0-0.276-0.224-0.5-0.5-0.5h-32c-0.276 0-0.5 0.224-0.5 0.5v18c0 0.276 0.224 0.5 0.5 0.5zM4 4h31v17h-31v-17zM14 28c-1.14 0-2 0.86-2 2v1.5c0 0.276 0.224 0.5 0.5 0.5h14c0.276 0 0.5-0.224 0.5-0.5v-1.425c0-1.163-0.878-2.075-2-2.075h-11zM26 30.075v0.925h-13v-1c0-0.589 0.411-1 1-1h11c0.57 0 1 0.462 1 1.075z"></path>
</symbol>
<symbol id="icon-presentation" viewBox="0 0 31 32">
<path d="M0.5 3c-0.276 0-0.5 0.224-0.5 0.5v17c0 0.827 0.673 1.5 1.5 1.5h28c0.827 0 1.5-0.673 1.5-1.5v-17c0-0.276-0.224-0.5-0.5-0.5s-0.5 0.224-0.5 0.5v17c0 0.276-0.224 0.5-0.5 0.5h-28c-0.276 0-0.5-0.224-0.5-0.5v-17c0-0.276-0.224-0.5-0.5-0.5zM32.5 0h-34c-0.276 0-0.5 0.224-0.5 0.5s0.224 0.5 0.5 0.5h34c0.276 0 0.5-0.224 0.5-0.5s-0.224-0.5-0.5-0.5zM11.854 8.146c-0.183-0.183-0.475-0.196-0.674-0.031l-6 5c-0.212 0.177-0.241 0.492-0.064 0.705 0.177 0.212 0.491 0.241 0.705 0.064l5.649-4.708 5.677 5.677c0.097 0.098 0.225 0.147 0.353 0.147s0.256-0.049 0.354-0.146l7.146-7.147v3.793c0 0.276 0.224 0.5 0.5 0.5s0.5-0.224 0.5-0.5v-5c0-0.065-0.013-0.13-0.038-0.191-0.051-0.122-0.148-0.22-0.271-0.271-0.061-0.025-0.126-0.038-0.191-0.038h-5c-0.276 0-0.5 0.224-0.5 0.5s0.224 0.5 0.5 0.5h3.793l-6.793 6.793-5.646-5.647zM8.057 31.732c0.128 0.245 0.43 0.339 0.675 0.211l6.768-3.545 6.768 3.545c0.074 0.039 0.153 0.057 0.232 0.057 0.18 0 0.354-0.098 0.443-0.268 0.128-0.245 0.034-0.547-0.211-0.675l-6.893-3.61c0.098-0.091 0.161-0.219 0.161-0.364v-2.583c0-0.276-0.224-0.5-0.5-0.5s-0.5 0.224-0.5 0.5v2.583c0 0.144 0.063 0.272 0.161 0.363l-6.893 3.61c-0.245 0.129-0.339 0.431-0.211 0.676z"></path>
</symbol>
<symbol id="icon-picture" viewBox="0 0 32 32">
<path d="M1.5 32h29c0.827 0 1.5-0.673 1.5-1.5v-29c0-0.827-0.673-1.5-1.5-1.5h-29c-0.827 0-1.5 0.673-1.5 1.5v29c0 0.827 0.673 1.5 1.5 1.5zM1 1.5c0-0.276 0.225-0.5 0.5-0.5h29c0.275 0 0.5 0.224 0.5 0.5v29c0 0.276-0.225 0.5-0.5 0.5h-29c-0.275 0-0.5-0.224-0.5-0.5v-29zM20.5 12.5c1.103 0 2-0.897 2-2s-0.897-2-2-2-2 0.897-2 2 0.897 2 2 2zM20.5 9.5c0.552 0 1 0.449 1 1s-0.448 1-1 1-1-0.449-1-1 0.448-1 1-1zM4.5 25h23c0.276 0 0.5-0.224 0.5-0.5v-20c0-0.276-0.224-0.5-0.5-0.5h-23c-0.276 0-0.5 0.224-0.5 0.5v20c0 0.276 0.224 0.5 0.5 0.5zM5 24v-5.638c0.022-0.016 0.047-0.025 0.067-0.045l5.116-5.116c0.26-0.26 0.712-0.259 0.972 0l7.521 7.521c0.098 0.098 0.226 0.146 0.354 0.146 0.124 0 0.248-0.046 0.345-0.138l3.866-3.672c0.13-0.13 0.303-0.202 0.486-0.202 0.184 0 0.355 0.072 0.471 0.187l2.802 3.052c0 0 0.001 0 0.001 0.001v3.904h-22.001zM27 5v13.618l-2.081-2.266c-0.317-0.319-0.741-0.495-1.191-0.495-0.001 0-0.001 0-0.001 0-0.451 0-0.875 0.176-1.185 0.486l-3.504 3.328-7.176-7.177c-0.639-0.638-1.749-0.637-2.386 0l-4.476 4.477v-11.971h22z"></path>
</symbol>
<symbol id="icon-edit" viewBox="0 0 32 32">
<path d="M1.5 32h29c0.827 0 1.5-0.673 1.5-1.5v-29c0-0.827-0.673-1.5-1.5-1.5h-29c-0.827 0-1.5 0.673-1.5 1.5v29c0 0.827 0.673 1.5 1.5 1.5zM1 1.5c0-0.276 0.225-0.5 0.5-0.5h29c0.275 0 0.5 0.224 0.5 0.5v29c0 0.276-0.225 0.5-0.5 0.5h-29c-0.275 0-0.5-0.224-0.5-0.5v-29zM4 28.479c0.048 0 0.096-0.007 0.143-0.021l10-2.979c0.081-0.024 0.154-0.068 0.213-0.127l10.090-10.205c0.023-0.024 0.035-0.053 0.052-0.080l3.658-3.658c0.607-0.607 0.607-1.595 0-2.203l-5.236-5.234c-0.607-0.607-1.595-0.608-2.202 0l-3.739 3.739c-0.024 0.024-0.036 0.054-0.054 0.081l-10.118 10.119c-0.056 0.056-0.098 0.124-0.122 0.199l-3.16 9.715c-0.058 0.177-0.012 0.371 0.117 0.504 0.095 0.097 0.225 0.15 0.358 0.15zM17.359 8.771l1.040 1.040-8.523 8.563-1.727-0.392 9.21-9.211zM10.5 19.165l8.607-8.646 2.434 2.434-8.745 8.547h-2.296v-2.335zM23.385 14.797l-9.246 9.352-0.576-1.999 8.684-8.489 1.138 1.136zM7.493 18.859l2.007 0.456v2.685c0 0.276 0.224 0.5 0.5 0.5h2.624l0.633 2.2-8.487 2.528 2.723-8.369zM21.425 4.679c0.218-0.217 0.572-0.216 0.788 0l5.235 5.235c0.218 0.217 0.218 0.571 0 0.789l-3.372 3.372-6.023-6.023 3.372-3.373z"></path>
</symbol>
<symbol id="icon-pencil" viewBox="0 0 32 32">
<path d="M0 31.479c0 0.276 0.224 0.5 0.5 0.5h31.111c0.067 0 0.132-0.013 0.193-0.039s0.116-0.063 0.162-0.109c0.001-0.001 0.002-0.001 0.003-0.002 0.003-0.003 0.003-0.009 0.007-0.012 0.051-0.055 0.084-0.122 0.107-0.195 0.007-0.023 0.010-0.045 0.014-0.069 0.004-0.025 0.015-0.047 0.015-0.073 0-0.040-0.014-0.075-0.023-0.112-0.003-0.014 0.003-0.028-0.002-0.042l-3.16-9.715c-0.024-0.075-0.066-0.144-0.122-0.199l-17.117-17.118c-0.018-0.028-0.031-0.058-0.055-0.083l-3.739-3.739c-0.607-0.607-1.595-0.607-2.203 0l-5.235 5.235c-0.294 0.294-0.456 0.685-0.456 1.101s0.162 0.808 0.456 1.102l3.656 3.656c0.018 0.027 0.030 0.058 0.054 0.082l17.090 17.205c0.059 0.060 0.131 0.103 0.212 0.127l6.713 2h-27.681c-0.276-0.001-0.5 0.223-0.5 0.499zM6.362 10.161l15.687 15.486-0.577 2.002-16.245-16.353 1.135-1.135zM22.816 25l-15.748-15.545 2.437-2.437 15.607 15.648v2.334h-2.296zM25.735 21.875l-15.523-15.564 1.039-1.039 16.211 16.211-1.727 0.392zM22.988 26h2.624c0.276 0 0.5-0.224 0.5-0.5v-2.685l2.007-0.456 2.723 8.37-8.488-2.529 0.634-2.2zM1 6.808c0-0.149 0.058-0.288 0.163-0.394l5.235-5.235c0.217-0.217 0.57-0.218 0.789 0l3.372 3.372-6.023 6.023-3.372-3.372c-0.106-0.105-0.164-0.245-0.164-0.394z"></path>
</symbol>
<symbol id="icon-strategy" viewBox="0 0 23 32">
<path d="M22 31.5c0-0.276-0.224-0.5-0.5-0.5h-18c-0.276 0-0.5 0.224-0.5 0.5s0.224 0.5 0.5 0.5h18c0.276 0 0.5-0.224 0.5-0.5zM1.274 9.354c-0.418 0.278-1.052 1.124-0.451 2.326 0.499 0.997 1.54 2.217 2.647 2.539 0.564 0.166 1.12 0.097 1.605-0.196 1.099-0.658 2.397-1.548 2.947-1.93 0.694 0.351 1.57 0.424 2.46 0.195 0.004-0.001 0.008-0.003 0.012-0.004-0.052 1.651-0.611 2.682-3.344 5.22-2.436 2.261-3.881 5.231-3.867 7.946 0.010 1.781 0.659 3.31 1.88 4.419 0.093 0.085 0.213 0.131 0.337 0.131h14c0.276 0 0.5-0.224 0.5-0.5s-0.224-0.5-0.5-0.5h-13.801c-0.919-0.905-1.407-2.13-1.415-3.555-0.013-2.402 1.347-5.165 3.547-7.208 2.915-2.706 3.669-3.988 3.669-6.237 0-0.041-0.014-0.077-0.023-0.115 0.547-0.295 1.020-0.685 1.343-1.157 0.405-0.59 1.277-2.105 0.63-3.446-0.12-0.247-0.419-0.352-0.668-0.232s-0.353 0.419-0.232 0.668c0.291 0.603 0.084 1.517-0.554 2.445-0.368 0.536-1.026 0.969-1.761 1.157-0.747 0.191-1.457 0.107-1.952-0.232-0.173-0.118-0.4-0.117-0.571 0.004-0.018 0.012-1.777 1.251-3.149 2.074-0.251 0.15-0.516 0.182-0.812 0.094-0.774-0.226-1.625-1.212-2.032-2.026-0.329-0.658 0.008-0.972 0.161-1.084 3.447-2.977 5.177-6.070 5.248-6.201 0.066-0.122 0.080-0.266 0.036-0.399-0.005-0.015-0.35-1.063-0.54-2.033 1.046 0.63 2.845 1.51 4.718 1.51 2.604 0 8.658 0.972 8.658 9.976 0 0.049-0.009 4.944-1.97 10.327-0.095 0.259 0.039 0.546 0.299 0.641 0.057 0.019 0.114 0.029 0.171 0.029 0.204 0 0.396-0.126 0.47-0.329 2.021-5.548 2.031-10.466 2.030-10.671 0-10.183-7.393-10.974-9.658-10.974-2.509 0-5.012-1.903-5.036-1.923-0.153-0.115-0.355-0.134-0.527-0.051s-0.279 0.258-0.279 0.448c0 0.981 0.465 2.568 0.646 3.147-0.418 0.698-2.066 3.281-4.872 5.707zM17.485 1.54c-1.601-1.079-3.391-1.54-5.985-1.54-0.276 0-0.5 0.224-0.5 0.5s0.224 0.5 0.5 0.5c2.38 0 4.003 0.409 5.427 1.369 2.314 1.562 5.073 4.674 5.073 10.631 0 1.451 0 3.438-0.985 7.379-0.066 0.268 0.096 0.539 0.364 0.606 0.041 0.010 0.081 0.015 0.121 0.015 0.225 0 0.429-0.151 0.485-0.379 1.015-4.059 1.015-6.118 1.015-7.621 0-6.396-2.999-9.763-5.515-11.46z"></path>
</symbol>
<symbol id="icon-download" viewBox="0 0 42 32">
<path d="M33.958 12.982c-0.43-6.61-5.027-12.982-13.458-12.982-1.029 0-2.044 0.1-3.018 0.297-0.271 0.055-0.445 0.318-0.391 0.59 0.055 0.271 0.314 0.445 0.59 0.391 0.908-0.185 1.857-0.278 2.819-0.278 8.588 0 12.5 6.739 12.5 13v1.5c0 0.276 0.224 0.5 0.5 0.5s0.5-0.224 0.5-0.5v-1.5c0-0.005-0.001-0.011-0.001-0.016 3.063 0.264 7.001 2.932 7.001 8.516 0 4.767-3.514 8.5-8 8.5h-24c-3.976 0-8-2.92-8-8.5 0-4.094 2.504-8.5 8-8.5h1.5c0.276 0 0.5-0.224 0.5-0.5s-0.224-0.5-0.5-0.5h-1.5v-2c0-3.727 2.299-6.042 6-6.042 3.364 0 6 2.654 6 6.042v12.993l-4.16-3.86c-0.2-0.188-0.517-0.177-0.706 0.026s-0.177 0.519 0.026 0.706l4.516 4.189c0.299 0.298 0.563 0.445 0.827 0.445 0.261 0 0.52-0.145 0.808-0.433l4.529-4.202c0.203-0.188 0.215-0.504 0.026-0.706-0.188-0.204-0.506-0.215-0.706-0.026l-4.16 3.861v-12.993c0-3.949-3.075-7.042-7-7.042-4.252 0-7 2.764-7 7.042v2.051c-5.255 0.508-8 5.003-8 9.449 0 4.605 3.154 9.5 9 9.5h24c5.047 0 9-4.173 9-9.5 0-6.304-4.557-9.278-8.042-9.518z"></path>
</symbol>
<symbol id="icon-linkedin-with-circle" viewBox="0 0 20 20">
<path d="M10 0.4c-5.302 0-9.6 4.298-9.6 9.6s4.298 9.6 9.6 9.6 9.6-4.298 9.6-9.6-4.298-9.6-9.6-9.6zM7.65 13.979h-1.944v-6.256h1.944v6.256zM6.666 6.955c-0.614 0-1.011-0.435-1.011-0.973 0-0.549 0.409-0.971 1.036-0.971s1.011 0.422 1.023 0.971c0 0.538-0.396 0.973-1.048 0.973zM14.75 13.979h-1.944v-3.467c0-0.807-0.282-1.355-0.985-1.355-0.537 0-0.856 0.371-0.997 0.728-0.052 0.127-0.065 0.307-0.065 0.486v3.607h-1.945v-4.26c0-0.781-0.025-1.434-0.051-1.996h1.689l0.089 0.869h0.039c0.256-0.408 0.883-1.010 1.932-1.010 1.279 0 2.238 0.857 2.238 2.699v3.699z"></path>
</symbol>
</defs>
</svg>
