<svg aria-hidden="true" style="position: absolute; width: 0; height: 0; overflow: hidden;" version="1.1" xmlns="http://www.w3.org/2000/svg" xmlns:xlink="http://www.w3.org/1999/xlink">
<defs>
<symbol id="icon-briefcase" viewBox="0 0 38 32">
<path d="M37.5 18c-0.276 0-0.5 0.224-0.5 0.5v12c0 0.276-0.224 0.5-0.5 0.5h-35c-0.276 0-0.5-0.224-0.5-0.5v-12c0-0.276-0.224-0.5-0.5-0.5s-0.5 0.224-0.5 0.5v12c0 0.827 0.673 1.5 1.5 1.5h35c0.827 0 1.5-0.673 1.5-1.5v-12c0-0.276-0.224-0.5-0.5-0.5zM25.5 5c0.276 0 0.5-0.224 0.5-0.5v-3c0-0.827-0.673-1.5-1.5-1.5h-11c-0.827 0-1.5 0.673-1.5 1.5v3c0 0.276 0.224 0.5 0.5 0.5s0.5-0.224 0.5-0.5v-3c0-0.276 0.224-0.5 0.5-0.5h11c0.276 0 0.5 0.224 0.5 0.5v3c0 0.276 0.224 0.5 0.5 0.5zM36.5 7h-35c-0.827 0-1.5 0.673-1.5 1.5v4.958c0 2.778 9.456 6.5 19.125 6.5 9.543 0 18.875-3.722 18.875-6.5v-4.958c0-0.827-0.673-1.5-1.5-1.5zM37 13.458c0 1.764-8.457 5.5-17.875 5.5-9.55 0-18.125-3.735-18.125-5.5v-4.958c0-0.276 0.224-0.5 0.5-0.5h35c0.276 0 0.5 0.224 0.5 0.5v4.958zM19.125 23c0.943 0 1.923-0.039 2.914-0.116 0.275-0.021 0.481-0.262 0.459-0.538-0.021-0.275-0.252-0.486-0.538-0.459-2.014 0.157-3.909 0.15-5.919-0.020-0.264-0.027-0.517 0.181-0.54 0.456s0.181 0.517 0.456 0.54c1.076 0.091 2.142 0.137 3.168 0.137z"></path>
</symbol>
<symbol id="icon-edit" viewBox="0 0 32 32">
<path d="M1.5 32h29c0.827 0 1.5-0.673 1.5-1.5v-29c0-0.827-0.673-1.5-1.5-1.5h-29c-0.827 0-1.5 0.673-1.5 1.5v29c0 0.827 0.673 1.5 1.5 1.5zM1 1.5c0-0.276 0.225-0.5 0.5-0.5h29c0.275 0 0.5 0.224 0.5 0.5v29c0 0.276-0.225 0.5-0.5 0.5h-29c-0.275 0-0.5-0.224-0.5-0.5v-29zM4 28.479c0.048 0 0.096-0.007 0.143-0.021l10-2.979c0.081-0.024 0.154-0.068 0.213-0.127l10.090-10.205c0.023-0.024 0.035-0.053 0.052-0.080l3.658-3.658c0.607-0.607 0.607-1.595 0-2.203l-5.236-5.234c-0.607-0.607-1.595-0.608-2.202 0l-3.739 3.739c-0.024 0.024-0.036 0.054-0.054 0.081l-10.118 10.119c-0.056 0.056-0.098 0.124-0.122 0.199l-3.16 9.715c-0.058 0.177-0.012 0.371 0.117 0.504 0.095 0.097 0.225 0.15 0.358 0.15zM17.359 8.771l1.040 1.040-8.523 8.563-1.727-0.392 9.21-9.211zM10.5 19.165l8.607-8.646 2.434 2.434-8.745 8.547h-2.296v-2.335zM23.385 14.797l-9.246 9.352-0.576-1.999 8.684-8.489 1.138 1.136zM7.493 18.859l2.007 0.456v2.685c0 0.276 0.224 0.5 0.5 0.5h2.624l0.633 2.2-8.487 2.528 2.723-8.369zM21.425 4.679c0.218-0.217 0.572-0.216 0.788 0l5.235 5.235c0.218 0.217 0.218 0.571 0 0.789l-3.372 3.372-6.023-6.023 3.372-3.373z"></path>
</symbol>
<symbol id="icon-target" viewBox="0 0 42 32">
<path d="M41.779 13.090c-0.225-0.189-0.562-0.159-0.752 0.068l-2.367 2.84c-0.051-0.016-0.103-0.032-0.16 0.002h-1.391l1.77-2.158c0.189-0.227 0.158-0.563-0.068-0.752s-0.563-0.159-0.752 0.068l-2.34 2.842h-1.579l1.77-2.158c0.189-0.227 0.158-0.563-0.068-0.752s-0.562-0.159-0.752 0.068l-2.34 2.842h-0.752c-0.019-8.841-7.187-16-15.998-16-8.822 0-16 7.178-16 16s7.178 16 16 16c8.473 0 15.41-6.626 15.948-15h0.803l2.34 2.842c0.105 0.127 0.258 0.192 0.41 0.192 0.121 0 0.242-0.040 0.342-0.124 0.227-0.188 0.258-0.525 0.068-0.752l-1.771-2.158h1.579l2.34 2.842c0.105 0.127 0.258 0.192 0.41 0.192 0.121 0 0.242-0.040 0.342-0.124 0.227-0.188 0.258-0.525 0.068-0.752l-1.77-2.158h1.391c0.057 0.034 0.109 0.018 0.161 0.002l2.367 2.84c0.105 0.127 0.258 0.192 0.41 0.192 0.121 0 0.242-0.040 0.342-0.124 0.227-0.188 0.258-0.525 0.068-0.752l-2.215-2.658 2.215-2.658c0.189-0.227 0.158-0.564-0.069-0.752zM16 31c-8.271 0-15-6.729-15-15s6.729-15 15-15c8.26 0 14.979 6.71 14.998 15h-3c-0.018-6.635-5.392-12-11.998-12-6.617 0-12 5.383-12 12s5.383 12 12 12c6.268 0 11.421-4.832 11.948-11h3c-0.535 7.823-7.026 14-14.948 14zM23.998 16c-0.018-4.429-3.598-8-7.998-8-4.411 0-8 3.589-8 8s3.589 8 8 8c4.060 0 7.416-3.043 7.925-7h3.022c-0.523 5.616-5.231 10-10.947 10-6.065 0-11-4.935-11-11s4.935-11 11-11c6.054 0 10.98 4.916 10.998 11h-3zM19.997 16c-0.019-2.224-1.802-4-3.997-4-2.206 0-4 1.794-4 4s1.794 4 4 4c1.846 0 3.388-1.263 3.847-3h3.068c-0.503 3.404-3.408 6-6.915 6-3.859 0-7-3.141-7-7s3.141-7 7-7c3.848 0 6.98 3.122 6.998 7h-3.001zM16.5 17h2.305c-0.423 1.178-1.516 2-2.805 2-1.654 0-3-1.346-3-3s1.346-3 3-3c1.643 0 2.978 1.328 2.997 3h-2.497c-0.295-0.034-0.534 0.205-0.534 0.5s0.239 0.534 0.534 0.5z"></path>
</symbol>
<symbol id="icon-linkedin-with-circle" viewBox="0 0 20 20">
<path d="M10 0.4c-5.302 0-9.6 4.298-9.6 9.6s4.298 9.6 9.6 9.6 9.6-4.298 9.6-9.6-4.298-9.6-9.6-9.6zM7.65 13.979h-1.944v-6.256h1.944v6.256zM6.666 6.955c-0.614 0-1.011-0.435-1.011-0.973 0-0.549 0.409-0.971 1.036-0.971s1.011 0.422 1.023 0.971c0 0.538-0.396 0.973-1.048 0.973zM14.75 13.979h-1.944v-3.467c0-0.807-0.282-1.355-0.985-1.355-0.537 0-0.856 0.371-0.997 0.728-0.052 0.127-0.065 0.307-0.065 0.486v3.607h-1.945v-4.26c0-0.781-0.025-1.434-0.051-1.996h1.689l0.089 0.869h0.039c0.256-0.408 0.883-1.010 1.932-1.010 1.279 0 2.238 0.857 2.238 2.699v3.699z"></path>
</symbol>
</defs>
</svg>
